<svg width="50" height="50" viewBox="0 0 50 50" fill="none" xmlns="http://www.w3.org/2000/svg">
<path d="M22.8123 32H19.5169L24.5382 17.4545H28.5012L33.5154 32H30.22L26.5765 20.7784H26.4629L22.8123 32ZM22.6064 26.2827H30.3904V28.6832H22.6064V26.2827ZM36.9778 32.1847C36.5091 32.1847 36.1066 32.0189 35.7704 31.6875C35.439 31.3513 35.2733 30.9489 35.2733 30.4801C35.2733 30.0161 35.439 29.6184 35.7704 29.2869C36.1066 28.9555 36.5091 28.7898 36.9778 28.7898C37.4324 28.7898 37.8301 28.9555 38.171 29.2869C38.5119 29.6184 38.6824 30.0161 38.6824 30.4801C38.6824 30.7926 38.6019 31.0791 38.4409 31.3395C38.2846 31.5952 38.0787 31.8011 37.823 31.9574C37.5673 32.1089 37.2856 32.1847 36.9778 32.1847Z" fill="#17B091"/>
</svg>
